<?xml version="1.0" standalone="no"?>
<!DOCTYPE svg PUBLIC "-//W3C//DTD SVG 20010904//EN"
 "http://www.w3.org/TR/2001/REC-SVG-20010904/DTD/svg10.dtd">
<svg version="1.0" xmlns="http://www.w3.org/2000/svg"
 width="512.000000pt" height="512.000000pt" viewBox="0 0 512.000000 512.000000"
 preserveAspectRatio="xMidYMid meet">
<metadata>
Created by potrace 1.14, written by Peter Selinger 2001-2017
</metadata>
<g transform="translate(0.000000,512.000000) scale(0.100000,-0.100000)"
fill="#000000" stroke="none">
<path d="M2518 4695 c-2 -1 -48 -5 -103 -9 -273 -16 -536 -87 -795 -213 -302
-148 -562 -363 -769 -638 -17 -22 -34 -44 -39 -50 -71 -90 -210 -362 -262
-510 -36 -103 -85 -294 -96 -375 -4 -30 -8 -57 -9 -60 -7 -29 -17 -219 -17
-310 2 -169 12 -262 48 -430 88 -407 304 -790 608 -1081 88 -83 101 -95 201
-169 411 -307 911 -454 1425 -419 58 4 118 10 134 13 16 3 50 8 75 11 25 4
100 20 165 36 668 166 1224 662 1473 1313 59 157 108 365 128 551 7 64 8 356
1 390 -2 11 -7 49 -11 85 -4 36 -9 74 -11 85 -2 11 -6 31 -9 45 -3 14 -7 36
-10 50 -4 14 -9 39 -11 55 -3 17 -26 91 -50 165 -76 230 -212 481 -357 660
-64 79 -241 260 -317 324 -150 125 -441 288 -635 356 -98 34 -290 84 -370 95
-27 4 -61 9 -75 12 -14 2 -79 6 -145 9 -66 2 -130 6 -142 8 -13 2 -24 2 -25 1z"/>
</g>
</svg>
